<svg xmlns="http://www.w3.org/2000/svg"
  viewBox="225 521 460 63"
  preserveAspectRatio="xMinYMid meet"
  role="img"
  aria-label="Quiddity Digital">
  <title>Quiddity Digital</title>
  <g fill="#f59e0b" fill-opacity="1"><g transform="translate(236.153715, 554.200825)"><g><path d="M 28.109375 -2.234375 C 28.804688 -1.597656 28.742188 -0.867188 27.921875 -0.046875 L 25.640625 1.796875 C 24.859375 2.585938 24.148438 2.664062 23.515625 2.03125 L 21.234375 -0.28125 C 20.253906 0.125 19.257812 0.398438 18.25 0.546875 C 17.238281 0.691406 16.226562 0.765625 15.21875 0.765625 C 13.789062 0.765625 12.34375 0.554688 10.875 0.140625 C 9.40625 -0.265625 8.039062 -0.898438 6.78125 -1.765625 C 5.519531 -2.640625 4.5 -3.753906 3.71875 -5.109375 C 2.945312 -6.472656 2.5625 -8.085938 2.5625 -9.953125 L 2.5625 -21.140625 C 2.5625 -23.003906 2.945312 -24.613281 3.71875 -25.96875 C 4.5 -27.332031 5.519531 -28.445312 6.78125 -29.3125 C 8.039062 -30.1875 9.40625 -30.828125 10.875 -31.234375 C 12.34375 -31.648438 13.789062 -31.859375 15.21875 -31.859375 C 16.632812 -31.859375 18.085938 -31.648438 19.578125 -31.234375 C 21.066406 -30.828125 22.441406 -30.1875 23.703125 -29.3125 C 24.960938 -28.445312 25.988281 -27.332031 26.78125 -25.96875 C 27.570312 -24.613281 27.96875 -23.003906 27.96875 -21.140625 L 27.96875 -9.953125 C 27.96875 -8.753906 27.847656 -7.703125 27.609375 -6.796875 C 27.378906 -5.898438 26.945312 -5.054688 26.3125 -4.265625 Z M 20.578125 -20.53125 C 20.578125 -22.039062 20.085938 -23.210938 19.109375 -24.046875 C 18.128906 -24.890625 16.847656 -25.3125 15.265625 -25.3125 C 13.710938 -25.3125 12.445312 -24.890625 11.46875 -24.046875 C 10.488281 -23.210938 10 -22.039062 10 -20.53125 L 10 -10.671875 C 10 -9.148438 10.488281 -7.96875 11.46875 -7.125 C 12.445312 -6.289062 13.710938 -5.875 15.265625 -5.875 C 16.847656 -5.875 18.128906 -6.289062 19.109375 -7.125 C 20.085938 -7.96875 20.578125 -9.148438 20.578125 -10.671875 Z M 20.578125 -20.53125 "/></g></g></g><g fill="#f59e0b" fill-opacity="1"><g transform="translate(266.775607, 554.200825)"><g><path d="M 26.828125 -31.1875 C 27.273438 -31.1875 27.613281 -31.09375 27.84375 -30.90625 C 28.082031 -30.71875 28.203125 -30.351562 28.203125 -29.8125 L 28.203125 -9.53125 C 28.203125 -7.664062 27.820312 -6.082031 27.0625 -4.78125 C 26.3125 -3.488281 25.3125 -2.4375 24.0625 -1.625 C 22.8125 -0.820312 21.453125 -0.234375 19.984375 0.140625 C 18.515625 0.523438 17.066406 0.71875 15.640625 0.71875 C 14.222656 0.71875 12.785156 0.523438 11.328125 0.140625 C 9.878906 -0.234375 8.53125 -0.820312 7.28125 -1.625 C 6.03125 -2.4375 5.023438 -3.488281 4.265625 -4.78125 C 3.503906 -6.082031 3.125 -7.664062 3.125 -9.53125 L 3.125 -29.8125 C 3.125 -30.351562 3.25 -30.71875 3.5 -30.90625 C 3.757812 -31.09375 4.09375 -31.1875 4.5 -31.1875 L 9.203125 -31.1875 C 9.640625 -31.1875 9.976562 -31.09375 10.21875 -30.90625 C 10.457031 -30.71875 10.578125 -30.351562 10.578125 -29.8125 L 10.578125 -10.578125 C 10.578125 -9.085938 11.035156 -7.929688 11.953125 -7.109375 C 12.867188 -6.285156 14.097656 -5.875 15.640625 -5.875 C 17.222656 -5.875 18.472656 -6.285156 19.390625 -7.109375 C 20.304688 -7.929688 20.765625 -9.085938 20.765625 -10.578125 L 20.765625 -29.8125 C 20.765625 -30.351562 20.890625 -30.71875 21.140625 -30.90625 C 21.390625 -31.09375 21.722656 -31.1875 22.140625 -31.1875 Z M 26.828125 -31.1875 "/></g></g></g><g fill="#f59e0b" fill-opacity="1"><g transform="translate(298.108543, 554.200825)"><g><path d="M 17.0625 -6.5 C 17.601562 -6.5 17.96875 -6.378906 18.15625 -6.140625 C 18.34375 -5.898438 18.4375 -5.5625 18.4375 -5.125 L 18.4375 -1.375 C 18.4375 -0.96875 18.34375 -0.632812 18.15625 -0.375 C 17.96875 -0.125 17.601562 0 17.0625 0 L 3.65625 0 C 3.113281 0 2.75 -0.125 2.5625 -0.375 C 2.375 -0.632812 2.28125 -0.96875 2.28125 -1.375 L 2.28125 -5.125 C 2.28125 -5.5625 2.375 -5.898438 2.5625 -6.140625 C 2.75 -6.378906 3.113281 -6.5 3.65625 -6.5 L 6.640625 -6.5 L 6.640625 -24.609375 L 3.75 -24.609375 C 3.207031 -24.609375 2.84375 -24.734375 2.65625 -24.984375 C 2.46875 -25.234375 2.375 -25.566406 2.375 -25.984375 L 2.375 -29.8125 C 2.375 -30.257812 2.46875 -30.597656 2.65625 -30.828125 C 2.84375 -31.066406 3.207031 -31.1875 3.75 -31.1875 L 16.921875 -31.1875 C 17.460938 -31.1875 17.828125 -31.066406 18.015625 -30.828125 C 18.203125 -30.597656 18.296875 -30.257812 18.296875 -29.8125 L 18.296875 -25.984375 C 18.296875 -25.566406 18.203125 -25.234375 18.015625 -24.984375 C 17.828125 -24.734375 17.460938 -24.609375 16.921875 -24.609375 L 14.078125 -24.609375 L 14.078125 -6.5 Z M 17.0625 -6.5 "/></g></g></g><g fill="#f59e0b" fill-opacity="1"><g transform="translate(319.155176, 554.200825)"><g><path d="M 15.5 -31.1875 C 16.925781 -31.1875 18.378906 -30.972656 19.859375 -30.546875 C 21.347656 -30.117188 22.722656 -29.476562 23.984375 -28.625 C 25.253906 -27.78125 26.28125 -26.6875 27.0625 -25.34375 C 27.851562 -24 28.25 -22.394531 28.25 -20.53125 L 28.25 -10.671875 C 28.25 -8.804688 27.851562 -7.203125 27.0625 -5.859375 C 26.28125 -4.515625 25.253906 -3.40625 23.984375 -2.53125 C 22.722656 -1.664062 21.347656 -1.023438 19.859375 -0.609375 C 18.378906 -0.203125 16.925781 0 15.5 0 L 4.890625 0 C 4.347656 0 3.984375 -0.125 3.796875 -0.375 C 3.609375 -0.632812 3.515625 -0.96875 3.515625 -1.375 L 3.515625 -29.8125 C 3.515625 -30.257812 3.609375 -30.597656 3.796875 -30.828125 C 3.984375 -31.066406 4.347656 -31.1875 4.890625 -31.1875 Z M 20.8125 -19.859375 C 20.8125 -21.347656 20.320312 -22.507812 19.34375 -23.34375 C 18.363281 -24.1875 17.082031 -24.609375 15.5 -24.609375 L 10.953125 -24.609375 L 10.953125 -6.59375 L 15.5 -6.59375 C 17.082031 -6.59375 18.363281 -7 19.34375 -7.8125 C 20.320312 -8.632812 20.8125 -9.804688 20.8125 -11.328125 Z M 20.8125 -19.859375 "/></g></g></g><g fill="#f59e0b" fill-opacity="1"><g transform="translate(349.966685, 554.200825)"><g><path d="M 15.5 -31.1875 C 16.925781 -31.1875 18.378906 -30.972656 19.859375 -30.546875 C 21.347656 -30.117188 22.722656 -29.476562 23.984375 -28.625 C 25.253906 -27.78125 26.28125 -26.6875 27.0625 -25.34375 C 27.851562 -24 28.25 -22.394531 28.25 -20.53125 L 28.25 -10.671875 C 28.25 -8.804688 27.851562 -7.203125 27.0625 -5.859375 C 26.28125 -4.515625 25.253906 -3.40625 23.984375 -2.53125 C 22.722656 -1.664062 21.347656 -1.023438 19.859375 -0.609375 C 18.378906 -0.203125 16.925781 0 15.5 0 L 4.890625 0 C 4.347656 0 3.984375 -0.125 3.796875 -0.375 C 3.609375 -0.632812 3.515625 -0.96875 3.515625 -1.375 L 3.515625 -29.8125 C 3.515625 -30.257812 3.609375 -30.597656 3.796875 -30.828125 C 3.984375 -31.066406 4.347656 -31.1875 4.890625 -31.1875 Z M 20.8125 -19.859375 C 20.8125 -21.347656 20.320312 -22.507812 19.34375 -23.34375 C 18.363281 -24.1875 17.082031 -24.609375 15.5 -24.609375 L 10.953125 -24.609375 L 10.953125 -6.59375 L 15.5 -6.59375 C 17.082031 -6.59375 18.363281 -7 19.34375 -7.8125 C 20.320312 -8.632812 20.8125 -9.804688 20.8125 -11.328125 Z M 20.8125 -19.859375 "/></g></g></g><g fill="#f59e0b" fill-opacity="1"><g transform="translate(380.778194, 554.200825)"><g><path d="M 17.0625 -6.5 C 17.601562 -6.5 17.96875 -6.378906 18.15625 -6.140625 C 18.34375 -5.898438 18.4375 -5.5625 18.4375 -5.125 L 18.4375 -1.375 C 18.4375 -0.96875 18.34375 -0.632812 18.15625 -0.375 C 17.96875 -0.125 17.601562 0 17.0625 0 L 3.65625 0 C 3.113281 0 2.75 -0.125 2.5625 -0.375 C 2.375 -0.632812 2.28125 -0.96875 2.28125 -1.375 L 2.28125 -5.125 C 2.28125 -5.5625 2.375 -5.898438 2.5625 -6.140625 C 2.75 -6.378906 3.113281 -6.5 3.65625 -6.5 L 6.640625 -6.5 L 6.640625 -24.609375 L 3.75 -24.609375 C 3.207031 -24.609375 2.84375 -24.734375 2.65625 -24.984375 C 2.46875 -25.234375 2.375 -25.566406 2.375 -25.984375 L 2.375 -29.8125 C 2.375 -30.257812 2.46875 -30.597656 2.65625 -30.828125 C 2.84375 -31.066406 3.207031 -31.1875 3.75 -31.1875 L 16.921875 -31.1875 C 17.460938 -31.1875 17.828125 -31.066406 18.015625 -30.828125 C 18.203125 -30.597656 18.296875 -30.257812 18.296875 -29.8125 L 18.296875 -25.984375 C 18.296875 -25.566406 18.203125 -25.234375 18.015625 -24.984375 C 17.828125 -24.734375 17.460938 -24.609375 16.921875 -24.609375 L 14.078125 -24.609375 L 14.078125 -6.5 Z M 17.0625 -6.5 "/></g></g></g><g fill="#f59e0b" fill-opacity="1"><g transform="translate(401.824828, 554.200825)"><g><path d="M 24.609375 -31.1875 C 25.140625 -31.1875 25.5 -31.066406 25.6875 -30.828125 C 25.882812 -30.597656 25.984375 -30.257812 25.984375 -29.8125 L 25.984375 -25.890625 C 25.984375 -25.472656 25.882812 -25.140625 25.6875 -24.890625 C 25.5 -24.640625 25.140625 -24.515625 24.609375 -24.515625 L 17.34375 -24.515625 L 17.34375 -1.375 C 17.34375 -0.832031 17.222656 -0.46875 16.984375 -0.28125 C 16.753906 -0.09375 16.414062 0 15.96875 0 L 11.28125 0 C 10.875 0 10.539062 -0.09375 10.28125 -0.28125 C 10.03125 -0.46875 9.90625 -0.832031 9.90625 -1.375 L 9.90625 -24.515625 L 2.609375 -24.515625 C 2.066406 -24.515625 1.703125 -24.640625 1.515625 -24.890625 C 1.328125 -25.140625 1.234375 -25.472656 1.234375 -25.890625 L 1.234375 -29.8125 C 1.234375 -30.257812 1.328125 -30.597656 1.515625 -30.828125 C 1.703125 -31.066406 2.066406 -31.1875 2.609375 -31.1875 Z M 24.609375 -31.1875 "/></g></g></g><g fill="#f59e0b" fill-opacity="1"><g transform="translate(429.033748, 554.200825)"><g><path d="M 27.265625 -31.1875 C 27.703125 -31.1875 27.96875 -31.03125 28.0625 -30.71875 C 28.15625 -30.40625 28.140625 -30.117188 28.015625 -29.859375 L 18.25 -11.703125 L 18.25 -1.375 C 18.25 -0.832031 18.128906 -0.46875 17.890625 -0.28125 C 17.660156 -0.09375 17.320312 0 16.875 0 L 12.140625 0 C 11.691406 0 11.347656 -0.09375 11.109375 -0.28125 C 10.878906 -0.46875 10.765625 -0.832031 10.765625 -1.375 L 10.765625 -11.703125 L 0.609375 -29.859375 C 0.484375 -30.117188 0.46875 -30.40625 0.5625 -30.71875 C 0.664062 -31.03125 0.9375 -31.1875 1.375 -31.1875 L 6.828125 -31.1875 C 7.359375 -31.1875 7.78125 -31.109375 8.09375 -30.953125 C 8.414062 -30.796875 8.734375 -30.398438 9.046875 -29.765625 L 14.59375 -19.578125 L 19.953125 -29.765625 C 20.273438 -30.398438 20.582031 -30.796875 20.875 -30.953125 C 21.175781 -31.109375 21.597656 -31.1875 22.140625 -31.1875 Z M 27.265625 -31.1875 "/></g></g></g><g fill="#E8EDF2" fill-opacity="1"><g transform="translate(470.528697, 554.200825)"><g><path d="M 15.5 -31.1875 C 16.925781 -31.1875 18.378906 -30.972656 19.859375 -30.546875 C 21.347656 -30.117188 22.722656 -29.476562 23.984375 -28.625 C 25.253906 -27.78125 26.28125 -26.6875 27.0625 -25.34375 C 27.851562 -24 28.25 -22.394531 28.25 -20.53125 L 28.25 -10.671875 C 28.25 -8.804688 27.851562 -7.203125 27.0625 -5.859375 C 26.28125 -4.515625 25.253906 -3.40625 23.984375 -2.53125 C 22.722656 -1.664062 21.347656 -1.023438 19.859375 -0.609375 C 18.378906 -0.203125 16.925781 0 15.5 0 L 4.890625 0 C 4.347656 0 3.984375 -0.125 3.796875 -0.375 C 3.609375 -0.632812 3.515625 -0.96875 3.515625 -1.375 L 3.515625 -29.8125 C 3.515625 -30.257812 3.609375 -30.597656 3.796875 -30.828125 C 3.984375 -31.066406 4.347656 -31.1875 4.890625 -31.1875 Z M 20.8125 -19.859375 C 20.8125 -21.347656 20.320312 -22.507812 19.34375 -23.34375 C 18.363281 -24.1875 17.082031 -24.609375 15.5 -24.609375 L 10.953125 -24.609375 L 10.953125 -6.59375 L 15.5 -6.59375 C 17.082031 -6.59375 18.363281 -7 19.34375 -7.8125 C 20.320312 -8.632812 20.8125 -9.804688 20.8125 -11.328125 Z M 20.8125 -19.859375 "/></g></g></g><g fill="#E8EDF2" fill-opacity="1"><g transform="translate(501.340206, 554.200825)"><g><path d="M 17.0625 -6.5 C 17.601562 -6.5 17.96875 -6.378906 18.15625 -6.140625 C 18.34375 -5.898438 18.4375 -5.5625 18.4375 -5.125 L 18.4375 -1.375 C 18.4375 -0.96875 18.34375 -0.632812 18.15625 -0.375 C 17.96875 -0.125 17.601562 0 17.0625 0 L 3.65625 0 C 3.113281 0 2.75 -0.125 2.5625 -0.375 C 2.375 -0.632812 2.28125 -0.96875 2.28125 -1.375 L 2.28125 -5.125 C 2.28125 -5.5625 2.375 -5.898438 2.5625 -6.140625 C 2.75 -6.378906 3.113281 -6.5 3.65625 -6.5 L 6.640625 -6.5 L 6.640625 -24.609375 L 3.75 -24.609375 C 3.207031 -24.609375 2.84375 -24.734375 2.65625 -24.984375 C 2.46875 -25.234375 2.375 -25.566406 2.375 -25.984375 L 2.375 -29.8125 C 2.375 -30.257812 2.46875 -30.597656 2.65625 -30.828125 C 2.84375 -31.066406 3.207031 -31.1875 3.75 -31.1875 L 16.921875 -31.1875 C 17.460938 -31.1875 17.828125 -31.066406 18.015625 -30.828125 C 18.203125 -30.597656 18.296875 -30.257812 18.296875 -29.8125 L 18.296875 -25.984375 C 18.296875 -25.566406 18.203125 -25.234375 18.015625 -24.984375 C 17.828125 -24.734375 17.460938 -24.609375 16.921875 -24.609375 L 14.078125 -24.609375 L 14.078125 -6.5 Z M 17.0625 -6.5 "/></g></g></g><g fill="#E8EDF2" fill-opacity="1"><g transform="translate(522.386839, 554.200825)"><g><path d="M 26.6875 -17.390625 C 27.226562 -17.390625 27.59375 -17.269531 27.78125 -17.03125 C 27.96875 -16.800781 28.0625 -16.460938 28.0625 -16.015625 L 28.0625 -9.15625 C 27.96875 -7.445312 27.507812 -5.96875 26.6875 -4.71875 C 25.863281 -3.46875 24.820312 -2.445312 23.5625 -1.65625 C 22.300781 -0.863281 20.945312 -0.269531 19.5 0.125 C 18.0625 0.519531 16.664062 0.71875 15.3125 0.71875 C 13.914062 0.71875 12.472656 0.523438 10.984375 0.140625 C 9.503906 -0.234375 8.125 -0.820312 6.84375 -1.625 C 5.570312 -2.4375 4.539062 -3.5 3.75 -4.8125 C 2.957031 -6.125 2.5625 -7.710938 2.5625 -9.578125 L 2.5625 -21.234375 C 2.5625 -23.097656 2.957031 -24.707031 3.75 -26.0625 C 4.539062 -27.425781 5.570312 -28.535156 6.84375 -29.390625 C 8.125 -30.242188 9.503906 -30.875 10.984375 -31.28125 C 12.472656 -31.695312 13.914062 -31.90625 15.3125 -31.90625 C 16.800781 -31.90625 18.296875 -31.691406 19.796875 -31.265625 C 21.296875 -30.835938 22.664062 -30.210938 23.90625 -29.390625 C 25.15625 -28.566406 26.160156 -27.546875 26.921875 -26.328125 C 27.679688 -25.117188 28.0625 -23.722656 28.0625 -22.140625 C 28.0625 -21.566406 27.96875 -21.203125 27.78125 -21.046875 C 27.59375 -20.890625 27.226562 -20.8125 26.6875 -20.8125 L 22.09375 -20.8125 C 21.425781 -20.8125 21.0625 -21 21 -21.375 C 20.9375 -21.757812 20.84375 -22.109375 20.71875 -22.421875 C 20.46875 -23.148438 19.898438 -23.8125 19.015625 -24.40625 C 18.128906 -25.007812 16.894531 -25.3125 15.3125 -25.3125 C 13.757812 -25.3125 12.5 -24.835938 11.53125 -23.890625 C 10.570312 -22.941406 10.09375 -21.707031 10.09375 -20.1875 L 10.09375 -10.671875 C 10.09375 -9.148438 10.570312 -7.96875 11.53125 -7.125 C 12.5 -6.289062 13.757812 -5.875 15.3125 -5.875 C 16.863281 -5.875 18.128906 -6.257812 19.109375 -7.03125 C 20.085938 -7.8125 20.578125 -9.117188 20.578125 -10.953125 L 16.3125 -10.953125 C 15.769531 -10.953125 15.40625 -11.078125 15.21875 -11.328125 C 15.03125 -11.578125 14.9375 -11.910156 14.9375 -12.328125 L 14.9375 -16.015625 C 14.9375 -16.460938 15.03125 -16.800781 15.21875 -17.03125 C 15.40625 -17.269531 15.769531 -17.390625 16.3125 -17.390625 Z M 26.6875 -17.390625 "/></g></g></g><g fill="#E8EDF2" fill-opacity="1"><g transform="translate(553.008731, 554.200825)"><g><path d="M 17.0625 -6.5 C 17.601562 -6.5 17.96875 -6.378906 18.15625 -6.140625 C 18.34375 -5.898438 18.4375 -5.5625 18.4375 -5.125 L 18.4375 -1.375 C 18.4375 -0.96875 18.34375 -0.632812 18.15625 -0.375 C 17.96875 -0.125 17.601562 0 17.0625 0 L 3.65625 0 C 3.113281 0 2.75 -0.125 2.5625 -0.375 C 2.375 -0.632812 2.28125 -0.96875 2.28125 -1.375 L 2.28125 -5.125 C 2.28125 -5.5625 2.375 -5.898438 2.5625 -6.140625 C 2.75 -6.378906 3.113281 -6.5 3.65625 -6.5 L 6.640625 -6.5 L 6.640625 -24.609375 L 3.75 -24.609375 C 3.207031 -24.609375 2.84375 -24.734375 2.65625 -24.984375 C 2.46875 -25.234375 2.375 -25.566406 2.375 -25.984375 L 2.375 -29.8125 C 2.375 -30.257812 2.46875 -30.597656 2.65625 -30.828125 C 2.84375 -31.066406 3.207031 -31.1875 3.75 -31.1875 L 16.921875 -31.1875 C 17.460938 -31.1875 17.828125 -31.066406 18.015625 -30.828125 C 18.203125 -30.597656 18.296875 -30.257812 18.296875 -29.8125 L 18.296875 -25.984375 C 18.296875 -25.566406 18.203125 -25.234375 18.015625 -24.984375 C 17.828125 -24.734375 17.460938 -24.609375 16.921875 -24.609375 L 14.078125 -24.609375 L 14.078125 -6.5 Z M 17.0625 -6.5 "/></g></g></g><g fill="#E8EDF2" fill-opacity="1"><g transform="translate(574.055364, 554.200825)"><g><path d="M 24.609375 -31.1875 C 25.140625 -31.1875 25.5 -31.066406 25.6875 -30.828125 C 25.882812 -30.597656 25.984375 -30.257812 25.984375 -29.8125 L 25.984375 -25.890625 C 25.984375 -25.472656 25.882812 -25.140625 25.6875 -24.890625 C 25.5 -24.640625 25.140625 -24.515625 24.609375 -24.515625 L 17.34375 -24.515625 L 17.34375 -1.375 C 17.34375 -0.832031 17.222656 -0.46875 16.984375 -0.28125 C 16.753906 -0.09375 16.414062 0 15.96875 0 L 11.28125 0 C 10.875 0 10.539062 -0.09375 10.28125 -0.28125 C 10.03125 -0.46875 9.90625 -0.832031 9.90625 -1.375 L 9.90625 -24.515625 L 2.609375 -24.515625 C 2.066406 -24.515625 1.703125 -24.640625 1.515625 -24.890625 C 1.328125 -25.140625 1.234375 -25.472656 1.234375 -25.890625 L 1.234375 -29.8125 C 1.234375 -30.257812 1.328125 -30.597656 1.515625 -30.828125 C 1.703125 -31.066406 2.066406 -31.1875 2.609375 -31.1875 Z M 24.609375 -31.1875 "/></g></g></g><g fill="#E8EDF2" fill-opacity="1"><g transform="translate(598.609473, 554.200825)"><g><path d="M 30.34375 -1.328125 C 30.46875 -1.046875 30.5 -0.753906 30.4375 -0.453125 C 30.375 -0.148438 30.070312 0 29.53125 0 L 24.5625 0 C 24.050781 0 23.671875 -0.09375 23.421875 -0.28125 C 23.171875 -0.46875 22.945312 -0.847656 22.75 -1.421875 L 21.421875 -5.171875 L 9.8125 -5.171875 L 8.484375 -1.421875 C 8.296875 -0.847656 8.082031 -0.46875 7.84375 -0.28125 C 7.601562 -0.09375 7.21875 0 6.6875 0 L 1.703125 0 C 1.203125 0 0.910156 -0.148438 0.828125 -0.453125 C 0.753906 -0.753906 0.78125 -1.046875 0.90625 -1.328125 L 11.421875 -29.71875 C 11.609375 -30.226562 11.851562 -30.597656 12.15625 -30.828125 C 12.457031 -31.066406 12.863281 -31.1875 13.375 -31.1875 L 17.921875 -31.1875 C 18.453125 -31.1875 18.851562 -31.066406 19.125 -30.828125 C 19.394531 -30.597656 19.640625 -30.226562 19.859375 -29.71875 Z M 15.640625 -22.28125 L 12.09375 -11.796875 L 19.203125 -11.796875 Z M 15.640625 -22.28125 "/></g></g></g><g fill="#E8EDF2" fill-opacity="1"><g transform="translate(629.65799, 554.200825)"><g><path d="M 24.609375 -6.640625 C 25.140625 -6.640625 25.5 -6.519531 25.6875 -6.28125 C 25.882812 -6.039062 25.984375 -5.703125 25.984375 -5.265625 L 25.984375 -1.375 C 25.984375 -0.96875 25.882812 -0.632812 25.6875 -0.375 C 25.5 -0.125 25.140625 0 24.609375 0 L 4.890625 0 C 4.347656 0 3.984375 -0.125 3.796875 -0.375 C 3.609375 -0.632812 3.515625 -0.96875 3.515625 -1.375 L 3.515625 -29.8125 C 3.515625 -30.351562 3.640625 -30.71875 3.890625 -30.90625 C 4.140625 -31.09375 4.472656 -31.1875 4.890625 -31.1875 L 9.578125 -31.1875 C 10.015625 -31.1875 10.351562 -31.09375 10.59375 -30.90625 C 10.832031 -30.71875 10.953125 -30.351562 10.953125 -29.8125 L 10.953125 -6.640625 Z M 24.609375 -6.640625 "/></g></g></g><g fill="#E8EDF2" fill-opacity="1"><g transform="translate(229.323192, 576.834935)"><g><path d="M 7.703125 0.390625 C 6.941406 0.390625 6.25 0.257812 5.625 0 C 5.007812 -0.25 4.476562 -0.597656 4.03125 -1.046875 C 3.59375 -1.492188 3.253906 -2.035156 3.015625 -2.671875 C 2.773438 -3.316406 2.65625 -4.019531 2.65625 -4.78125 L 2.65625 -11.28125 L 0.390625 -11.28125 L 0.390625 -13.28125 L 2.921875 -13.28125 L 4.640625 -17.125 L 6.109375 -17.125 L 6.109375 -13.28125 L 10.09375 -13.28125 L 9.6875 -11.28125 L 6.109375 -11.28125 L 6.109375 -4.78125 C 6.109375 -3.570312 6.335938 -2.691406 6.796875 -2.140625 C 7.253906 -1.597656 7.820312 -1.328125 8.5 -1.328125 C 8.90625 -1.328125 9.265625 -1.390625 9.578125 -1.515625 C 9.890625 -1.648438 10.148438 -1.804688 10.359375 -1.984375 C 10.609375 -2.179688 10.828125 -2.40625 11.015625 -2.65625 L 11.953125 -1.59375 C 11.671875 -1.21875 11.328125 -0.878906 10.921875 -0.578125 C 10.566406 -0.335938 10.125 -0.117188 9.59375 0.078125 C 9.070312 0.285156 8.441406 0.390625 7.703125 0.390625 Z M 7.703125 0.390625 "/></g></g></g><g fill="#E8EDF2" fill-opacity="1"><g transform="translate(241.272837, 576.834935)"><g><path d="M 1.859375 -19.125 L 5.3125 -19.125 L 5.3125 -11.8125 L 5.4375 -11.8125 C 5.738281 -12.15625 6.09375 -12.46875 6.5 -12.75 C 6.851562 -12.976562 7.28125 -13.1875 7.78125 -13.375 C 8.289062 -13.570312 8.882812 -13.671875 9.5625 -13.671875 C 10.425781 -13.671875 11.203125 -13.546875 11.890625 -13.296875 C 12.585938 -13.054688 13.175781 -12.710938 13.65625 -12.265625 C 14.132812 -11.828125 14.5 -11.304688 14.75 -10.703125 C 15.007812 -10.097656 15.140625 -9.453125 15.140625 -8.765625 L 15.140625 0 L 11.6875 0 L 11.6875 -8.765625 C 11.6875 -9.773438 11.414062 -10.554688 10.875 -11.109375 C 10.332031 -11.671875 9.628906 -11.953125 8.765625 -11.953125 C 8.234375 -11.953125 7.753906 -11.835938 7.328125 -11.609375 C 6.898438 -11.390625 6.535156 -11.148438 6.234375 -10.890625 C 5.878906 -10.566406 5.570312 -10.210938 5.3125 -9.828125 L 5.3125 0 L 1.859375 0 Z M 1.859375 -19.125 "/></g></g></g><g fill="#E8EDF2" fill-opacity="1"><g transform="translate(258.135109, 576.834935)"><g><path d="M 8.5 0.390625 C 7.40625 0.390625 6.394531 0.207031 5.46875 -0.15625 C 4.550781 -0.53125 3.753906 -1.035156 3.078125 -1.671875 C 2.410156 -2.304688 1.882812 -3.050781 1.5 -3.90625 C 1.113281 -4.769531 0.921875 -5.679688 0.921875 -6.640625 C 0.921875 -7.628906 1.101562 -8.550781 1.46875 -9.40625 C 1.832031 -10.269531 2.332031 -11.015625 2.96875 -11.640625 C 3.613281 -12.273438 4.375 -12.769531 5.25 -13.125 C 6.125 -13.488281 7.070312 -13.671875 8.09375 -13.671875 C 9.125 -13.671875 10.078125 -13.492188 10.953125 -13.140625 C 11.828125 -12.785156 12.582031 -12.296875 13.21875 -11.671875 C 13.863281 -11.054688 14.363281 -10.335938 14.71875 -9.515625 C 15.082031 -8.691406 15.265625 -7.820312 15.265625 -6.90625 C 15.265625 -6.726562 15.253906 -6.566406 15.234375 -6.421875 C 15.222656 -6.285156 15.207031 -6.164062 15.1875 -6.0625 C 15.175781 -5.9375 15.160156 -5.816406 15.140625 -5.703125 L 4.515625 -5.703125 C 4.585938 -5.066406 4.742188 -4.484375 4.984375 -3.953125 C 5.234375 -3.421875 5.554688 -2.957031 5.953125 -2.5625 C 6.359375 -2.175781 6.820312 -1.875 7.34375 -1.65625 C 7.863281 -1.4375 8.425781 -1.328125 9.03125 -1.328125 C 9.707031 -1.328125 10.300781 -1.453125 10.8125 -1.703125 C 11.320312 -1.953125 11.765625 -2.222656 12.140625 -2.515625 C 12.566406 -2.859375 12.945312 -3.257812 13.28125 -3.71875 L 14.34375 -2.78125 C 13.957031 -2.1875 13.476562 -1.65625 12.90625 -1.1875 C 12.425781 -0.78125 11.820312 -0.414062 11.09375 -0.09375 C 10.375 0.226562 9.507812 0.390625 8.5 0.390625 Z M 11.6875 -7.703125 C 11.6875 -8.335938 11.582031 -8.914062 11.375 -9.4375 C 11.175781 -9.957031 10.910156 -10.40625 10.578125 -10.78125 C 10.253906 -11.15625 9.875 -11.441406 9.4375 -11.640625 C 9.007812 -11.847656 8.5625 -11.953125 8.09375 -11.953125 C 7.632812 -11.953125 7.1875 -11.847656 6.75 -11.640625 C 6.320312 -11.441406 5.9375 -11.15625 5.59375 -10.78125 C 5.257812 -10.40625 4.992188 -9.957031 4.796875 -9.4375 C 4.609375 -8.914062 4.515625 -8.335938 4.515625 -7.703125 Z M 11.6875 -7.703125 "/></g></g></g><g fill="#5bc9e0" fill-opacity="1"><g transform="translate(281.108343, 576.834935)"><g><path d="M 1.859375 -19.125 L 5.3125 -19.125 L 5.3125 -11.8125 L 5.4375 -11.8125 C 5.738281 -12.15625 6.09375 -12.46875 6.5 -12.75 C 6.851562 -12.976562 7.28125 -13.1875 7.78125 -13.375 C 8.289062 -13.570312 8.882812 -13.671875 9.5625 -13.671875 C 10.425781 -13.671875 11.203125 -13.546875 11.890625 -13.296875 C 12.585938 -13.054688 13.175781 -12.710938 13.65625 -12.265625 C 14.132812 -11.828125 14.5 -11.304688 14.75 -10.703125 C 15.007812 -10.097656 15.140625 -9.453125 15.140625 -8.765625 L 15.140625 0 L 11.6875 0 L 11.6875 -8.765625 C 11.6875 -9.773438 11.414062 -10.554688 10.875 -11.109375 C 10.332031 -11.671875 9.628906 -11.953125 8.765625 -11.953125 C 8.234375 -11.953125 7.753906 -11.835938 7.328125 -11.609375 C 6.898438 -11.390625 6.535156 -11.148438 6.234375 -10.890625 C 5.878906 -10.566406 5.570312 -10.210938 5.3125 -9.828125 L 5.3125 0 L 1.859375 0 Z M 1.859375 -19.125 "/></g></g></g><g fill="#5bc9e0" fill-opacity="1"><g transform="translate(297.970616, 576.834935)"><g><path d="M 1.859375 -13.28125 L 5.3125 -13.28125 L 5.3125 0 L 1.859375 0 Z M 3.578125 -15.40625 C 3.046875 -15.40625 2.582031 -15.601562 2.1875 -16 C 1.789062 -16.394531 1.59375 -16.859375 1.59375 -17.390625 C 1.59375 -17.921875 1.789062 -18.382812 2.1875 -18.78125 C 2.582031 -19.1875 3.046875 -19.390625 3.578125 -19.390625 C 4.109375 -19.390625 4.570312 -19.1875 4.96875 -18.78125 C 5.375 -18.382812 5.578125 -17.921875 5.578125 -17.390625 C 5.578125 -16.859375 5.375 -16.394531 4.96875 -16 C 4.570312 -15.601562 4.109375 -15.40625 3.578125 -15.40625 Z M 3.578125 -15.40625 "/></g></g></g><g fill="#5bc9e0" fill-opacity="1"><g transform="translate(305.140396, 576.834935)"><g><path d="M 7.828125 0.390625 C 6.878906 0.390625 5.984375 0.210938 5.140625 -0.140625 C 4.296875 -0.503906 3.554688 -1 2.921875 -1.625 C 2.296875 -2.257812 1.804688 -3.003906 1.453125 -3.859375 C 1.097656 -4.722656 0.921875 -5.648438 0.921875 -6.640625 C 0.921875 -7.628906 1.097656 -8.550781 1.453125 -9.40625 C 1.804688 -10.269531 2.296875 -11.015625 2.921875 -11.640625 C 3.554688 -12.273438 4.296875 -12.769531 5.140625 -13.125 C 5.984375 -13.488281 6.878906 -13.671875 7.828125 -13.671875 C 8.503906 -13.671875 9.09375 -13.570312 9.59375 -13.375 C 10.101562 -13.1875 10.535156 -12.976562 10.890625 -12.75 C 11.296875 -12.46875 11.648438 -12.15625 11.953125 -11.8125 L 12.078125 -11.8125 L 12.078125 -19.125 L 15.53125 -19.125 L 15.53125 -3.453125 C 15.53125 -2.847656 15.546875 -2.328125 15.578125 -1.890625 C 15.617188 -1.460938 15.664062 -1.109375 15.71875 -0.828125 C 15.789062 -0.503906 15.863281 -0.226562 15.9375 0 L 12.484375 0 C 12.429688 -0.195312 12.382812 -0.390625 12.34375 -0.578125 C 12.3125 -0.742188 12.28125 -0.914062 12.25 -1.09375 C 12.226562 -1.28125 12.21875 -1.445312 12.21875 -1.59375 L 12.078125 -1.59375 C 11.796875 -1.21875 11.453125 -0.878906 11.046875 -0.578125 C 10.691406 -0.335938 10.253906 -0.117188 9.734375 0.078125 C 9.210938 0.285156 8.578125 0.390625 7.828125 0.390625 Z M 8.625 -1.328125 C 9.15625 -1.328125 9.632812 -1.4375 10.0625 -1.65625 C 10.488281 -1.875 10.851562 -2.117188 11.15625 -2.390625 C 11.488281 -2.710938 11.796875 -3.066406 12.078125 -3.453125 L 12.078125 -9.828125 C 11.765625 -10.210938 11.421875 -10.566406 11.046875 -10.890625 C 10.734375 -11.148438 10.367188 -11.390625 9.953125 -11.609375 C 9.535156 -11.835938 9.09375 -11.953125 8.625 -11.953125 C 8.0625 -11.953125 7.53125 -11.835938 7.03125 -11.609375 C 6.539062 -11.378906 6.109375 -11.035156 5.734375 -10.578125 C 5.359375 -10.128906 5.0625 -9.578125 4.84375 -8.921875 C 4.625 -8.265625 4.515625 -7.503906 4.515625 -6.640625 C 4.515625 -5.773438 4.625 -5.015625 4.84375 -4.359375 C 5.0625 -3.703125 5.359375 -3.144531 5.734375 -2.6875 C 6.109375 -2.238281 6.539062 -1.898438 7.03125 -1.671875 C 7.53125 -1.441406 8.0625 -1.328125 8.625 -1.328125 Z M 8.625 -1.328125 "/></g></g></g><g fill="#5bc9e0" fill-opacity="1"><g transform="translate(322.533766, 576.834935)"><g><path d="M 7.828125 0.390625 C 6.878906 0.390625 5.984375 0.210938 5.140625 -0.140625 C 4.296875 -0.503906 3.554688 -1 2.921875 -1.625 C 2.296875 -2.257812 1.804688 -3.003906 1.453125 -3.859375 C 1.097656 -4.722656 0.921875 -5.648438 0.921875 -6.640625 C 0.921875 -7.628906 1.097656 -8.550781 1.453125 -9.40625 C 1.804688 -10.269531 2.296875 -11.015625 2.921875 -11.640625 C 3.554688 -12.273438 4.296875 -12.769531 5.140625 -13.125 C 5.984375 -13.488281 6.878906 -13.671875 7.828125 -13.671875 C 8.503906 -13.671875 9.09375 -13.570312 9.59375 -13.375 C 10.101562 -13.1875 10.535156 -12.976562 10.890625 -12.75 C 11.296875 -12.46875 11.648438 -12.15625 11.953125 -11.8125 L 12.078125 -11.8125 L 12.078125 -19.125 L 15.53125 -19.125 L 15.53125 -3.453125 C 15.53125 -2.847656 15.546875 -2.328125 15.578125 -1.890625 C 15.617188 -1.460938 15.664062 -1.109375 15.71875 -0.828125 C 15.789062 -0.503906 15.863281 -0.226562 15.9375 0 L 12.484375 0 C 12.429688 -0.195312 12.382812 -0.390625 12.34375 -0.578125 C 12.3125 -0.742188 12.28125 -0.914062 12.25 -1.09375 C 12.226562 -1.28125 12.21875 -1.445312 12.21875 -1.59375 L 12.078125 -1.59375 C 11.796875 -1.21875 11.453125 -0.878906 11.046875 -0.578125 C 10.691406 -0.335938 10.253906 -0.117188 9.734375 0.078125 C 9.210938 0.285156 8.578125 0.390625 7.828125 0.390625 Z M 8.625 -1.328125 C 9.15625 -1.328125 9.632812 -1.4375 10.0625 -1.65625 C 10.488281 -1.875 10.851562 -2.117188 11.15625 -2.390625 C 11.488281 -2.710938 11.796875 -3.066406 12.078125 -3.453125 L 12.078125 -9.828125 C 11.765625 -10.210938 11.421875 -10.566406 11.046875 -10.890625 C 10.734375 -11.148438 10.367188 -11.390625 9.953125 -11.609375 C 9.535156 -11.835938 9.09375 -11.953125 8.625 -11.953125 C 8.0625 -11.953125 7.53125 -11.835938 7.03125 -11.609375 C 6.539062 -11.378906 6.109375 -11.035156 5.734375 -10.578125 C 5.359375 -10.128906 5.0625 -9.578125 4.84375 -8.921875 C 4.625 -8.265625 4.515625 -7.503906 4.515625 -6.640625 C 4.515625 -5.773438 4.625 -5.015625 4.84375 -4.359375 C 5.0625 -3.703125 5.359375 -3.144531 5.734375 -2.6875 C 6.109375 -2.238281 6.539062 -1.898438 7.03125 -1.671875 C 7.53125 -1.441406 8.0625 -1.328125 8.625 -1.328125 Z M 8.625 -1.328125 "/></g></g></g><g fill="#5bc9e0" fill-opacity="1"><g transform="translate(339.927136, 576.834935)"><g><path d="M 8.5 0.390625 C 7.40625 0.390625 6.394531 0.207031 5.46875 -0.15625 C 4.550781 -0.53125 3.753906 -1.035156 3.078125 -1.671875 C 2.410156 -2.304688 1.882812 -3.050781 1.5 -3.90625 C 1.113281 -4.769531 0.921875 -5.679688 0.921875 -6.640625 C 0.921875 -7.628906 1.101562 -8.550781 1.46875 -9.40625 C 1.832031 -10.269531 2.332031 -11.015625 2.96875 -11.640625 C 3.613281 -12.273438 4.375 -12.769531 5.25 -13.125 C 6.125 -13.488281 7.070312 -13.671875 8.09375 -13.671875 C 9.125 -13.671875 10.078125 -13.492188 10.953125 -13.140625 C 11.828125 -12.785156 12.582031 -12.296875 13.21875 -11.671875 C 13.863281 -11.054688 14.363281 -10.335938 14.71875 -9.515625 C 15.082031 -8.691406 15.265625 -7.820312 15.265625 -6.90625 C 15.265625 -6.726562 15.253906 -6.566406 15.234375 -6.421875 C 15.222656 -6.285156 15.207031 -6.164062 15.1875 -6.0625 C 15.175781 -5.9375 15.160156 -5.816406 15.140625 -5.703125 L 4.515625 -5.703125 C 4.585938 -5.066406 4.742188 -4.484375 4.984375 -3.953125 C 5.234375 -3.421875 5.554688 -2.957031 5.953125 -2.5625 C 6.359375 -2.175781 6.820312 -1.875 7.34375 -1.65625 C 7.863281 -1.4375 8.425781 -1.328125 9.03125 -1.328125 C 9.707031 -1.328125 10.300781 -1.453125 10.8125 -1.703125 C 11.320312 -1.953125 11.765625 -2.222656 12.140625 -2.515625 C 12.566406 -2.859375 12.945312 -3.257812 13.28125 -3.71875 L 14.34375 -2.78125 C 13.957031 -2.1875 13.476562 -1.65625 12.90625 -1.1875 C 12.425781 -0.78125 11.820312 -0.414062 11.09375 -0.09375 C 10.375 0.226562 9.507812 0.390625 8.5 0.390625 Z M 11.6875 -7.703125 C 11.6875 -8.335938 11.582031 -8.914062 11.375 -9.4375 C 11.175781 -9.957031 10.910156 -10.40625 10.578125 -10.78125 C 10.253906 -11.15625 9.875 -11.441406 9.4375 -11.640625 C 9.007812 -11.847656 8.5625 -11.953125 8.09375 -11.953125 C 7.632812 -11.953125 7.1875 -11.847656 6.75 -11.640625 C 6.320312 -11.441406 5.9375 -11.15625 5.59375 -10.78125 C 5.257812 -10.40625 4.992188 -9.957031 4.796875 -9.4375 C 4.609375 -8.914062 4.515625 -8.335938 4.515625 -7.703125 Z M 11.6875 -7.703125 "/></g></g></g><g fill="#5bc9e0" fill-opacity="1"><g transform="translate(355.992762, 576.834935)"><g><path d="M 1.71875 -9.828125 C 1.71875 -10.429688 1.695312 -10.945312 1.65625 -11.375 C 1.613281 -11.8125 1.566406 -12.171875 1.515625 -12.453125 C 1.441406 -12.773438 1.378906 -13.050781 1.328125 -13.28125 L 4.78125 -13.28125 C 4.8125 -13.070312 4.851562 -12.867188 4.90625 -12.671875 C 4.945312 -12.492188 4.976562 -12.320312 5 -12.15625 C 5.03125 -11.988281 5.046875 -11.832031 5.046875 -11.6875 L 5.171875 -11.6875 C 5.460938 -12.039062 5.8125 -12.367188 6.21875 -12.671875 C 6.570312 -12.921875 7.007812 -13.148438 7.53125 -13.359375 C 8.050781 -13.566406 8.679688 -13.671875 9.421875 -13.671875 C 10.296875 -13.671875 11.078125 -13.546875 11.765625 -13.296875 C 12.453125 -13.054688 13.035156 -12.710938 13.515625 -12.265625 C 13.992188 -11.828125 14.359375 -11.304688 14.609375 -10.703125 C 14.867188 -10.097656 15 -9.453125 15 -8.765625 L 15 0 L 11.546875 0 L 11.546875 -8.765625 C 11.546875 -9.773438 11.273438 -10.554688 10.734375 -11.109375 C 10.203125 -11.671875 9.5 -11.953125 8.625 -11.953125 C 8.09375 -11.953125 7.613281 -11.835938 7.1875 -11.609375 C 6.769531 -11.390625 6.410156 -11.148438 6.109375 -10.890625 C 5.753906 -10.566406 5.441406 -10.210938 5.171875 -9.828125 L 5.171875 0 L 1.71875 0 Z M 1.71875 -9.828125 "/></g></g></g><g fill="#5bc9e0" fill-opacity="1"><g transform="translate(379.626503, 576.834935)"><g><path d="M 8.5 0.390625 C 7.40625 0.390625 6.394531 0.207031 5.46875 -0.15625 C 4.550781 -0.53125 3.753906 -1.035156 3.078125 -1.671875 C 2.410156 -2.304688 1.882812 -3.050781 1.5 -3.90625 C 1.113281 -4.769531 0.921875 -5.679688 0.921875 -6.640625 C 0.921875 -7.628906 1.101562 -8.550781 1.46875 -9.40625 C 1.832031 -10.269531 2.332031 -11.015625 2.96875 -11.640625 C 3.613281 -12.273438 4.375 -12.769531 5.25 -13.125 C 6.125 -13.488281 7.070312 -13.671875 8.09375 -13.671875 C 9.125 -13.671875 10.078125 -13.492188 10.953125 -13.140625 C 11.828125 -12.785156 12.582031 -12.296875 13.21875 -11.671875 C 13.863281 -11.054688 14.363281 -10.335938 14.71875 -9.515625 C 15.082031 -8.691406 15.265625 -7.820312 15.265625 -6.90625 C 15.265625 -6.726562 15.253906 -6.566406 15.234375 -6.421875 C 15.222656 -6.285156 15.207031 -6.164062 15.1875 -6.0625 C 15.175781 -5.9375 15.160156 -5.816406 15.140625 -5.703125 L 4.515625 -5.703125 C 4.585938 -5.066406 4.742188 -4.484375 4.984375 -3.953125 C 5.234375 -3.421875 5.554688 -2.957031 5.953125 -2.5625 C 6.359375 -2.175781 6.820312 -1.875 7.34375 -1.65625 C 7.863281 -1.4375 8.425781 -1.328125 9.03125 -1.328125 C 9.707031 -1.328125 10.300781 -1.453125 10.8125 -1.703125 C 11.320312 -1.953125 11.765625 -2.222656 12.140625 -2.515625 C 12.566406 -2.859375 12.945312 -3.257812 13.28125 -3.71875 L 14.34375 -2.78125 C 13.957031 -2.1875 13.476562 -1.65625 12.90625 -1.1875 C 12.425781 -0.78125 11.820312 -0.414062 11.09375 -0.09375 C 10.375 0.226562 9.507812 0.390625 8.5 0.390625 Z M 11.6875 -7.703125 C 11.6875 -8.335938 11.582031 -8.914062 11.375 -9.4375 C 11.175781 -9.957031 10.910156 -10.40625 10.578125 -10.78125 C 10.253906 -11.15625 9.875 -11.441406 9.4375 -11.640625 C 9.007812 -11.847656 8.5625 -11.953125 8.09375 -11.953125 C 7.632812 -11.953125 7.1875 -11.847656 6.75 -11.640625 C 6.320312 -11.441406 5.9375 -11.15625 5.59375 -10.78125 C 5.257812 -10.40625 4.992188 -9.957031 4.796875 -9.4375 C 4.609375 -8.914062 4.515625 -8.335938 4.515625 -7.703125 Z M 11.6875 -7.703125 "/></g></g></g><g fill="#5bc9e0" fill-opacity="1"><g transform="translate(395.69213, 576.834935)"><g><path d="M 1.859375 -19.125 L 5.3125 -19.125 L 5.3125 0 L 1.859375 0 Z M 1.859375 -19.125 "/></g></g></g><g fill="#5bc9e0" fill-opacity="1"><g transform="translate(402.86191, 576.834935)"><g><path d="M 8.5 0.390625 C 7.40625 0.390625 6.394531 0.207031 5.46875 -0.15625 C 4.550781 -0.53125 3.753906 -1.035156 3.078125 -1.671875 C 2.410156 -2.304688 1.882812 -3.050781 1.5 -3.90625 C 1.113281 -4.769531 0.921875 -5.679688 0.921875 -6.640625 C 0.921875 -7.628906 1.101562 -8.550781 1.46875 -9.40625 C 1.832031 -10.269531 2.332031 -11.015625 2.96875 -11.640625 C 3.613281 -12.273438 4.375 -12.769531 5.25 -13.125 C 6.125 -13.488281 7.070312 -13.671875 8.09375 -13.671875 C 9.125 -13.671875 10.078125 -13.492188 10.953125 -13.140625 C 11.828125 -12.785156 12.582031 -12.296875 13.21875 -11.671875 C 13.863281 -11.054688 14.363281 -10.335938 14.71875 -9.515625 C 15.082031 -8.691406 15.265625 -7.820312 15.265625 -6.90625 C 15.265625 -6.726562 15.253906 -6.566406 15.234375 -6.421875 C 15.222656 -6.285156 15.207031 -6.164062 15.1875 -6.0625 C 15.175781 -5.9375 15.160156 -5.816406 15.140625 -5.703125 L 4.515625 -5.703125 C 4.585938 -5.066406 4.742188 -4.484375 4.984375 -3.953125 C 5.234375 -3.421875 5.554688 -2.957031 5.953125 -2.5625 C 6.359375 -2.175781 6.820312 -1.875 7.34375 -1.65625 C 7.863281 -1.4375 8.425781 -1.328125 9.03125 -1.328125 C 9.707031 -1.328125 10.300781 -1.453125 10.8125 -1.703125 C 11.320312 -1.953125 11.765625 -2.222656 12.140625 -2.515625 C 12.566406 -2.859375 12.945312 -3.257812 13.28125 -3.71875 L 14.34375 -2.78125 C 13.957031 -2.1875 13.476562 -1.65625 12.90625 -1.1875 C 12.425781 -0.78125 11.820312 -0.414062 11.09375 -0.09375 C 10.375 0.226562 9.507812 0.390625 8.5 0.390625 Z M 11.6875 -7.703125 C 11.6875 -8.335938 11.582031 -8.914062 11.375 -9.4375 C 11.175781 -9.957031 10.910156 -10.40625 10.578125 -10.78125 C 10.253906 -11.15625 9.875 -11.441406 9.4375 -11.640625 C 9.007812 -11.847656 8.5625 -11.953125 8.09375 -11.953125 C 7.632812 -11.953125 7.1875 -11.847656 6.75 -11.640625 C 6.320312 -11.441406 5.9375 -11.15625 5.59375 -10.78125 C 5.257812 -10.40625 4.992188 -9.957031 4.796875 -9.4375 C 4.609375 -8.914062 4.515625 -8.335938 4.515625 -7.703125 Z M 11.6875 -7.703125 "/></g></g></g><g fill="#5bc9e0" fill-opacity="1"><g transform="translate(418.927536, 576.834935)"><g><path d="M 1.71875 -9.828125 C 1.71875 -10.429688 1.695312 -10.945312 1.65625 -11.375 C 1.613281 -11.8125 1.566406 -12.171875 1.515625 -12.453125 C 1.441406 -12.773438 1.378906 -13.050781 1.328125 -13.28125 L 4.78125 -13.28125 C 4.8125 -13.070312 4.851562 -12.867188 4.90625 -12.671875 C 4.945312 -12.492188 4.976562 -12.320312 5 -12.15625 C 5.03125 -11.988281 5.046875 -11.832031 5.046875 -11.6875 L 5.171875 -11.6875 C 5.441406 -12.039062 5.769531 -12.367188 6.15625 -12.671875 C 6.5 -12.921875 6.914062 -13.148438 7.40625 -13.359375 C 7.90625 -13.566406 8.488281 -13.671875 9.15625 -13.671875 C 9.988281 -13.671875 10.695312 -13.550781 11.28125 -13.3125 C 11.875 -13.082031 12.351562 -12.820312 12.71875 -12.53125 C 13.164062 -12.21875 13.53125 -11.847656 13.8125 -11.421875 L 13.9375 -11.421875 C 14.28125 -11.847656 14.679688 -12.21875 15.140625 -12.53125 C 15.523438 -12.820312 15.984375 -13.082031 16.515625 -13.3125 C 17.046875 -13.550781 17.648438 -13.671875 18.328125 -13.671875 C 19.117188 -13.671875 19.832031 -13.550781 20.46875 -13.3125 C 21.113281 -13.082031 21.660156 -12.75 22.109375 -12.3125 C 22.566406 -11.875 22.910156 -11.351562 23.140625 -10.75 C 23.378906 -10.15625 23.5 -9.492188 23.5 -8.765625 L 23.5 0 L 20.046875 0 L 20.046875 -8.765625 C 20.046875 -9.828125 19.8125 -10.625 19.34375 -11.15625 C 18.875 -11.6875 18.269531 -11.953125 17.53125 -11.953125 C 17.070312 -11.953125 16.644531 -11.835938 16.25 -11.609375 C 15.863281 -11.390625 15.53125 -11.148438 15.25 -10.890625 C 14.925781 -10.566406 14.625 -10.210938 14.34375 -9.828125 L 14.34375 0 L 10.890625 0 L 10.890625 -8.765625 C 10.890625 -9.828125 10.65625 -10.625 10.1875 -11.15625 C 9.71875 -11.6875 9.109375 -11.953125 8.359375 -11.953125 C 7.898438 -11.953125 7.472656 -11.835938 7.078125 -11.609375 C 6.691406 -11.390625 6.359375 -11.148438 6.078125 -10.890625 C 5.765625 -10.566406 5.460938 -10.210938 5.171875 -9.828125 L 5.171875 0 L 1.71875 0 Z M 1.71875 -9.828125 "/></g></g></g><g fill="#5bc9e0" fill-opacity="1"><g transform="translate(444.154558, 576.834935)"><g><path d="M 8.5 0.390625 C 7.40625 0.390625 6.394531 0.207031 5.46875 -0.15625 C 4.550781 -0.53125 3.753906 -1.035156 3.078125 -1.671875 C 2.410156 -2.304688 1.882812 -3.050781 1.5 -3.90625 C 1.113281 -4.769531 0.921875 -5.679688 0.921875 -6.640625 C 0.921875 -7.628906 1.101562 -8.550781 1.46875 -9.40625 C 1.832031 -10.269531 2.332031 -11.015625 2.96875 -11.640625 C 3.613281 -12.273438 4.375 -12.769531 5.25 -13.125 C 6.125 -13.488281 7.070312 -13.671875 8.09375 -13.671875 C 9.125 -13.671875 10.078125 -13.492188 10.953125 -13.140625 C 11.828125 -12.785156 12.582031 -12.296875 13.21875 -11.671875 C 13.863281 -11.054688 14.363281 -10.335938 14.71875 -9.515625 C 15.082031 -8.691406 15.265625 -7.820312 15.265625 -6.90625 C 15.265625 -6.726562 15.253906 -6.566406 15.234375 -6.421875 C 15.222656 -6.285156 15.207031 -6.164062 15.1875 -6.0625 C 15.175781 -5.9375 15.160156 -5.816406 15.140625 -5.703125 L 4.515625 -5.703125 C 4.585938 -5.066406 4.742188 -4.484375 4.984375 -3.953125 C 5.234375 -3.421875 5.554688 -2.957031 5.953125 -2.5625 C 6.359375 -2.175781 6.820312 -1.875 7.34375 -1.65625 C 7.863281 -1.4375 8.425781 -1.328125 9.03125 -1.328125 C 9.707031 -1.328125 10.300781 -1.453125 10.8125 -1.703125 C 11.320312 -1.953125 11.765625 -2.222656 12.140625 -2.515625 C 12.566406 -2.859375 12.945312 -3.257812 13.28125 -3.71875 L 14.34375 -2.78125 C 13.957031 -2.1875 13.476562 -1.65625 12.90625 -1.1875 C 12.425781 -0.78125 11.820312 -0.414062 11.09375 -0.09375 C 10.375 0.226562 9.507812 0.390625 8.5 0.390625 Z M 11.6875 -7.703125 C 11.6875 -8.335938 11.582031 -8.914062 11.375 -9.4375 C 11.175781 -9.957031 10.910156 -10.40625 10.578125 -10.78125 C 10.253906 -11.15625 9.875 -11.441406 9.4375 -11.640625 C 9.007812 -11.847656 8.5625 -11.953125 8.09375 -11.953125 C 7.632812 -11.953125 7.1875 -11.847656 6.75 -11.640625 C 6.320312 -11.441406 5.9375 -11.15625 5.59375 -10.78125 C 5.257812 -10.40625 4.992188 -9.957031 4.796875 -9.4375 C 4.609375 -8.914062 4.515625 -8.335938 4.515625 -7.703125 Z M 11.6875 -7.703125 "/></g></g></g><g fill="#5bc9e0" fill-opacity="1"><g transform="translate(460.220184, 576.834935)"><g><path d="M 1.71875 -9.828125 C 1.71875 -10.429688 1.695312 -10.945312 1.65625 -11.375 C 1.613281 -11.8125 1.566406 -12.171875 1.515625 -12.453125 C 1.441406 -12.773438 1.378906 -13.050781 1.328125 -13.28125 L 4.78125 -13.28125 C 4.8125 -13.070312 4.851562 -12.867188 4.90625 -12.671875 C 4.945312 -12.492188 4.976562 -12.320312 5 -12.15625 C 5.03125 -11.988281 5.046875 -11.832031 5.046875 -11.6875 L 5.171875 -11.6875 C 5.460938 -12.039062 5.8125 -12.367188 6.21875 -12.671875 C 6.570312 -12.921875 7.007812 -13.148438 7.53125 -13.359375 C 8.050781 -13.566406 8.679688 -13.671875 9.421875 -13.671875 C 10.296875 -13.671875 11.078125 -13.546875 11.765625 -13.296875 C 12.453125 -13.054688 13.035156 -12.710938 13.515625 -12.265625 C 13.992188 -11.828125 14.359375 -11.304688 14.609375 -10.703125 C 14.867188 -10.097656 15 -9.453125 15 -8.765625 L 15 0 L 11.546875 0 L 11.546875 -8.765625 C 11.546875 -9.773438 11.273438 -10.554688 10.734375 -11.109375 C 10.203125 -11.671875 9.5 -11.953125 8.625 -11.953125 C 8.09375 -11.953125 7.613281 -11.835938 7.1875 -11.609375 C 6.769531 -11.390625 6.410156 -11.148438 6.109375 -10.890625 C 5.753906 -10.566406 5.441406 -10.210938 5.171875 -9.828125 L 5.171875 0 L 1.71875 0 Z M 1.71875 -9.828125 "/></g></g></g><g fill="#5bc9e0" fill-opacity="1"><g transform="translate(476.949694, 576.834935)"><g><path d="M 7.703125 0.390625 C 6.941406 0.390625 6.25 0.257812 5.625 0 C 5.007812 -0.25 4.476562 -0.597656 4.03125 -1.046875 C 3.59375 -1.492188 3.253906 -2.035156 3.015625 -2.671875 C 2.773438 -3.316406 2.65625 -4.019531 2.65625 -4.78125 L 2.65625 -11.28125 L 0.390625 -11.28125 L 0.390625 -13.28125 L 2.921875 -13.28125 L 4.640625 -17.125 L 6.109375 -17.125 L 6.109375 -13.28125 L 10.09375 -13.28125 L 9.6875 -11.28125 L 6.109375 -11.28125 L 6.109375 -4.78125 C 6.109375 -3.570312 6.335938 -2.691406 6.796875 -2.140625 C 7.253906 -1.597656 7.820312 -1.328125 8.5 -1.328125 C 8.90625 -1.328125 9.265625 -1.390625 9.578125 -1.515625 C 9.890625 -1.648438 10.148438 -1.804688 10.359375 -1.984375 C 10.609375 -2.179688 10.828125 -2.40625 11.015625 -2.65625 L 11.953125 -1.59375 C 11.671875 -1.21875 11.328125 -0.878906 10.921875 -0.578125 C 10.566406 -0.335938 10.125 -0.117188 9.59375 0.078125 C 9.070312 0.285156 8.441406 0.390625 7.703125 0.390625 Z M 7.703125 0.390625 "/></g></g></g><g fill="#E8EDF2" fill-opacity="1"><g transform="translate(495.809446, 576.834935)"><g><path d="M 1.859375 -13.28125 L 5.3125 -13.28125 L 5.3125 0 L 1.859375 0 Z M 3.578125 -15.40625 C 3.046875 -15.40625 2.582031 -15.601562 2.1875 -16 C 1.789062 -16.394531 1.59375 -16.859375 1.59375 -17.390625 C 1.59375 -17.921875 1.789062 -18.382812 2.1875 -18.78125 C 2.582031 -19.1875 3.046875 -19.390625 3.578125 -19.390625 C 4.109375 -19.390625 4.570312 -19.1875 4.96875 -18.78125 C 5.375 -18.382812 5.578125 -17.921875 5.578125 -17.390625 C 5.578125 -16.859375 5.375 -16.394531 4.96875 -16 C 4.570312 -15.601562 4.109375 -15.40625 3.578125 -15.40625 Z M 3.578125 -15.40625 "/></g></g></g><g fill="#E8EDF2" fill-opacity="1"><g transform="translate(502.979226, 576.834935)"><g><path d="M 1.71875 -9.828125 C 1.71875 -10.429688 1.695312 -10.945312 1.65625 -11.375 C 1.613281 -11.8125 1.566406 -12.171875 1.515625 -12.453125 C 1.441406 -12.773438 1.378906 -13.050781 1.328125 -13.28125 L 4.78125 -13.28125 C 4.8125 -13.070312 4.851562 -12.867188 4.90625 -12.671875 C 4.945312 -12.492188 4.976562 -12.320312 5 -12.15625 C 5.03125 -11.988281 5.046875 -11.832031 5.046875 -11.6875 L 5.171875 -11.6875 C 5.460938 -12.039062 5.8125 -12.367188 6.21875 -12.671875 C 6.570312 -12.921875 7.007812 -13.148438 7.53125 -13.359375 C 8.050781 -13.566406 8.679688 -13.671875 9.421875 -13.671875 C 10.296875 -13.671875 11.078125 -13.546875 11.765625 -13.296875 C 12.453125 -13.054688 13.035156 -12.710938 13.515625 -12.265625 C 13.992188 -11.828125 14.359375 -11.304688 14.609375 -10.703125 C 14.867188 -10.097656 15 -9.453125 15 -8.765625 L 15 0 L 11.546875 0 L 11.546875 -8.765625 C 11.546875 -9.773438 11.273438 -10.554688 10.734375 -11.109375 C 10.203125 -11.671875 9.5 -11.953125 8.625 -11.953125 C 8.09375 -11.953125 7.613281 -11.835938 7.1875 -11.609375 C 6.769531 -11.390625 6.410156 -11.148438 6.109375 -10.890625 C 5.753906 -10.566406 5.441406 -10.210938 5.171875 -9.828125 L 5.171875 0 L 1.71875 0 Z M 1.71875 -9.828125 "/></g></g></g><g fill="#E8EDF2" fill-opacity="1"><g transform="translate(526.612967, 576.834935)"><g><path d="M 7.5625 5.84375 C 6.5625 5.84375 5.703125 5.6875 4.984375 5.375 C 4.265625 5.0625 3.675781 4.710938 3.21875 4.328125 C 2.664062 3.867188 2.210938 3.351562 1.859375 2.78125 L 2.921875 1.859375 C 3.222656 2.296875 3.578125 2.675781 3.984375 3 C 4.335938 3.28125 4.765625 3.535156 5.265625 3.765625 C 5.773438 3.992188 6.363281 4.109375 7.03125 4.109375 C 7.6875 4.109375 8.289062 4 8.84375 3.78125 C 9.40625 3.5625 9.882812 3.238281 10.28125 2.8125 C 10.6875 2.382812 11 1.863281 11.21875 1.25 C 11.4375 0.644531 11.546875 -0.0351562 11.546875 -0.796875 L 11.546875 -1.453125 L 11.421875 -1.453125 C 11.117188 -1.097656 10.765625 -0.789062 10.359375 -0.53125 C 10.003906 -0.28125 9.570312 -0.0664062 9.0625 0.109375 C 8.5625 0.296875 7.972656 0.390625 7.296875 0.390625 C 6.429688 0.390625 5.65625 0.265625 4.96875 0.015625 C 4.28125 -0.222656 3.695312 -0.5625 3.21875 -1 C 2.738281 -1.445312 2.367188 -1.972656 2.109375 -2.578125 C 1.847656 -3.179688 1.71875 -3.828125 1.71875 -4.515625 L 1.71875 -13.28125 L 5.171875 -13.28125 L 5.171875 -4.515625 C 5.171875 -3.503906 5.441406 -2.71875 5.984375 -2.15625 C 6.523438 -1.601562 7.226562 -1.328125 8.09375 -1.328125 C 8.625 -1.328125 9.101562 -1.4375 9.53125 -1.65625 C 9.957031 -1.875 10.320312 -2.117188 10.625 -2.390625 C 10.957031 -2.710938 11.265625 -3.066406 11.546875 -3.453125 L 11.546875 -13.28125 L 15 -13.28125 L 15 -0.796875 C 15 0.0664062 14.804688 0.894531 14.421875 1.6875 C 14.046875 2.488281 13.523438 3.195312 12.859375 3.8125 C 12.203125 4.425781 11.421875 4.914062 10.515625 5.28125 C 9.609375 5.65625 8.625 5.84375 7.5625 5.84375 Z M 7.5625 5.84375 "/></g></g></g><g fill="#E8EDF2" fill-opacity="1"><g transform="translate(543.342466, 576.834935)"><g><path d="M 8.359375 0.390625 C 7.296875 0.390625 6.304688 0.207031 5.390625 -0.15625 C 4.484375 -0.53125 3.695312 -1.035156 3.03125 -1.671875 C 2.375 -2.304688 1.859375 -3.050781 1.484375 -3.90625 C 1.109375 -4.769531 0.921875 -5.679688 0.921875 -6.640625 C 0.921875 -7.597656 1.109375 -8.503906 1.484375 -9.359375 C 1.859375 -10.222656 2.375 -10.972656 3.03125 -11.609375 C 3.695312 -12.242188 4.484375 -12.742188 5.390625 -13.109375 C 6.304688 -13.484375 7.296875 -13.671875 8.359375 -13.671875 C 9.421875 -13.671875 10.40625 -13.484375 11.3125 -13.109375 C 12.21875 -12.742188 13 -12.242188 13.65625 -11.609375 C 14.320312 -10.972656 14.84375 -10.222656 15.21875 -9.359375 C 15.601562 -8.503906 15.796875 -7.597656 15.796875 -6.640625 C 15.796875 -5.679688 15.601562 -4.769531 15.21875 -3.90625 C 14.84375 -3.050781 14.320312 -2.304688 13.65625 -1.671875 C 13 -1.035156 12.21875 -0.53125 11.3125 -0.15625 C 10.40625 0.207031 9.421875 0.390625 8.359375 0.390625 Z M 8.359375 -1.328125 C 8.859375 -1.328125 9.335938 -1.441406 9.796875 -1.671875 C 10.253906 -1.898438 10.664062 -2.238281 11.03125 -2.6875 C 11.394531 -3.144531 11.679688 -3.703125 11.890625 -4.359375 C 12.109375 -5.015625 12.21875 -5.773438 12.21875 -6.640625 C 12.21875 -7.503906 12.109375 -8.265625 11.890625 -8.921875 C 11.679688 -9.578125 11.394531 -10.128906 11.03125 -10.578125 C 10.664062 -11.035156 10.253906 -11.378906 9.796875 -11.609375 C 9.335938 -11.835938 8.859375 -11.953125 8.359375 -11.953125 C 7.867188 -11.953125 7.390625 -11.835938 6.921875 -11.609375 C 6.460938 -11.378906 6.050781 -11.035156 5.6875 -10.578125 C 5.332031 -10.128906 5.046875 -9.578125 4.828125 -8.921875 C 4.617188 -8.265625 4.515625 -7.503906 4.515625 -6.640625 C 4.515625 -5.773438 4.617188 -5.015625 4.828125 -4.359375 C 5.046875 -3.703125 5.332031 -3.144531 5.6875 -2.6875 C 6.050781 -2.238281 6.460938 -1.898438 6.921875 -1.671875 C 7.390625 -1.441406 7.867188 -1.328125 8.359375 -1.328125 Z M 8.359375 -1.328125 "/></g></g></g><g fill="#E8EDF2" fill-opacity="1"><g transform="translate(560.071964, 576.834935)"><g><path d="M 7.296875 0.390625 C 6.429688 0.390625 5.65625 0.265625 4.96875 0.015625 C 4.28125 -0.222656 3.695312 -0.5625 3.21875 -1 C 2.738281 -1.445312 2.367188 -1.972656 2.109375 -2.578125 C 1.847656 -3.179688 1.71875 -3.828125 1.71875 -4.515625 L 1.71875 -13.28125 L 5.171875 -13.28125 L 5.171875 -4.515625 C 5.171875 -3.503906 5.441406 -2.71875 5.984375 -2.15625 C 6.523438 -1.601562 7.226562 -1.328125 8.09375 -1.328125 C 8.625 -1.328125 9.101562 -1.4375 9.53125 -1.65625 C 9.957031 -1.875 10.320312 -2.117188 10.625 -2.390625 C 10.957031 -2.710938 11.265625 -3.066406 11.546875 -3.453125 L 11.546875 -13.28125 L 15 -13.28125 L 15 -3.453125 C 15 -2.847656 15.015625 -2.328125 15.046875 -1.890625 C 15.085938 -1.460938 15.132812 -1.109375 15.1875 -0.828125 C 15.257812 -0.503906 15.332031 -0.226562 15.40625 0 L 11.953125 0 C 11.898438 -0.195312 11.851562 -0.390625 11.8125 -0.578125 C 11.78125 -0.742188 11.75 -0.914062 11.71875 -1.09375 C 11.695312 -1.28125 11.6875 -1.445312 11.6875 -1.59375 L 11.546875 -1.59375 C 11.265625 -1.21875 10.921875 -0.878906 10.515625 -0.578125 C 10.160156 -0.335938 9.722656 -0.117188 9.203125 0.078125 C 8.679688 0.285156 8.046875 0.390625 7.296875 0.390625 Z M 7.296875 0.390625 "/></g></g></g><g fill="#E8EDF2" fill-opacity="1"><g transform="translate(576.801463, 576.834935)"><g><path d="M 1.71875 -9.828125 C 1.71875 -10.429688 1.695312 -10.945312 1.65625 -11.375 C 1.613281 -11.8125 1.566406 -12.171875 1.515625 -12.453125 C 1.441406 -12.773438 1.378906 -13.050781 1.328125 -13.28125 L 4.78125 -13.28125 C 4.8125 -13.070312 4.851562 -12.867188 4.90625 -12.671875 C 4.945312 -12.492188 4.976562 -12.320312 5 -12.15625 C 5.03125 -11.988281 5.046875 -11.832031 5.046875 -11.6875 L 5.171875 -11.6875 C 5.460938 -12.039062 5.8125 -12.367188 6.21875 -12.671875 C 6.570312 -12.921875 7.007812 -13.148438 7.53125 -13.359375 C 8.050781 -13.566406 8.679688 -13.671875 9.421875 -13.671875 C 9.691406 -13.671875 9.929688 -13.648438 10.140625 -13.609375 C 10.359375 -13.566406 10.535156 -13.519531 10.671875 -13.46875 C 10.847656 -13.394531 11.007812 -13.332031 11.15625 -13.28125 L 10.484375 -11.15625 L 9.953125 -11.28125 C 9.773438 -11.320312 9.578125 -11.351562 9.359375 -11.375 C 9.140625 -11.40625 8.894531 -11.421875 8.625 -11.421875 C 8.164062 -11.421875 7.726562 -11.335938 7.3125 -11.171875 C 6.894531 -11.003906 6.53125 -10.820312 6.21875 -10.625 C 5.84375 -10.394531 5.492188 -10.128906 5.171875 -9.828125 L 5.171875 0 L 1.71875 0 Z M 1.71875 -9.828125 "/></g></g></g><g fill="#E8EDF2" fill-opacity="1"><g transform="translate(594.858704, 576.834935)"><g><path d="M 8.09375 5.84375 C 7.09375 5.84375 6.234375 5.6875 5.515625 5.375 C 4.796875 5.0625 4.207031 4.710938 3.75 4.328125 C 3.195312 3.867188 2.742188 3.351562 2.390625 2.78125 L 3.453125 1.859375 C 3.753906 2.296875 4.109375 2.675781 4.515625 3 C 4.867188 3.28125 5.296875 3.535156 5.796875 3.765625 C 6.304688 3.992188 6.894531 4.109375 7.5625 4.109375 C 8.21875 4.109375 8.820312 4 9.375 3.78125 C 9.9375 3.5625 10.414062 3.238281 10.8125 2.8125 C 11.21875 2.382812 11.53125 1.863281 11.75 1.25 C 11.96875 0.644531 12.078125 -0.0351562 12.078125 -0.796875 L 12.078125 -1.984375 L 11.953125 -1.984375 C 11.648438 -1.628906 11.296875 -1.320312 10.890625 -1.0625 C 10.535156 -0.8125 10.101562 -0.59375 9.59375 -0.40625 C 9.09375 -0.21875 8.503906 -0.125 7.828125 -0.125 C 6.835938 -0.125 5.914062 -0.296875 5.0625 -0.640625 C 4.21875 -0.992188 3.488281 -1.46875 2.875 -2.0625 C 2.269531 -2.664062 1.789062 -3.382812 1.4375 -4.21875 C 1.09375 -5.050781 0.921875 -5.945312 0.921875 -6.90625 C 0.921875 -7.863281 1.09375 -8.757812 1.4375 -9.59375 C 1.789062 -10.425781 2.269531 -11.140625 2.875 -11.734375 C 3.488281 -12.335938 4.21875 -12.8125 5.0625 -13.15625 C 5.914062 -13.5 6.835938 -13.671875 7.828125 -13.671875 C 8.578125 -13.671875 9.210938 -13.566406 9.734375 -13.359375 C 10.253906 -13.148438 10.691406 -12.921875 11.046875 -12.671875 C 11.453125 -12.367188 11.796875 -12.039062 12.078125 -11.6875 L 12.21875 -11.6875 C 12.21875 -11.945312 12.257812 -12.273438 12.34375 -12.671875 C 12.382812 -12.867188 12.429688 -13.070312 12.484375 -13.28125 L 15.9375 -13.28125 C 15.863281 -13.050781 15.789062 -12.773438 15.71875 -12.453125 C 15.664062 -12.171875 15.617188 -11.8125 15.578125 -11.375 C 15.546875 -10.945312 15.53125 -10.429688 15.53125 -9.828125 L 15.53125 -0.796875 C 15.53125 0.0664062 15.335938 0.894531 14.953125 1.6875 C 14.578125 2.488281 14.054688 3.195312 13.390625 3.8125 C 12.734375 4.425781 11.953125 4.914062 11.046875 5.28125 C 10.140625 5.65625 9.15625 5.84375 8.09375 5.84375 Z M 8.625 -1.859375 C 9.09375 -1.859375 9.535156 -1.96875 9.953125 -2.1875 C 10.367188 -2.40625 10.734375 -2.648438 11.046875 -2.921875 C 11.421875 -3.242188 11.765625 -3.597656 12.078125 -3.984375 L 12.078125 -9.828125 C 11.796875 -10.210938 11.488281 -10.566406 11.15625 -10.890625 C 10.851562 -11.148438 10.488281 -11.390625 10.0625 -11.609375 C 9.632812 -11.835938 9.15625 -11.953125 8.625 -11.953125 C 7.425781 -11.953125 6.441406 -11.523438 5.671875 -10.671875 C 4.898438 -9.828125 4.515625 -8.570312 4.515625 -6.90625 C 4.515625 -5.238281 4.898438 -3.976562 5.671875 -3.125 C 6.441406 -2.28125 7.425781 -1.859375 8.625 -1.859375 Z M 8.625 -1.859375 "/></g></g></g><g fill="#E8EDF2" fill-opacity="1"><g transform="translate(612.1193, 576.834935)"><g><path d="M 1.71875 -9.828125 C 1.71875 -10.429688 1.695312 -10.945312 1.65625 -11.375 C 1.613281 -11.8125 1.566406 -12.171875 1.515625 -12.453125 C 1.441406 -12.773438 1.378906 -13.050781 1.328125 -13.28125 L 4.78125 -13.28125 C 4.8125 -13.070312 4.851562 -12.867188 4.90625 -12.671875 C 4.945312 -12.492188 4.976562 -12.320312 5 -12.15625 C 5.03125 -11.988281 5.046875 -11.832031 5.046875 -11.6875 L 5.171875 -11.6875 C 5.460938 -12.039062 5.8125 -12.367188 6.21875 -12.671875 C 6.570312 -12.921875 7.007812 -13.148438 7.53125 -13.359375 C 8.050781 -13.566406 8.679688 -13.671875 9.421875 -13.671875 C 9.691406 -13.671875 9.929688 -13.648438 10.140625 -13.609375 C 10.359375 -13.566406 10.535156 -13.519531 10.671875 -13.46875 C 10.847656 -13.394531 11.007812 -13.332031 11.15625 -13.28125 L 10.484375 -11.15625 L 9.953125 -11.28125 C 9.773438 -11.320312 9.578125 -11.351562 9.359375 -11.375 C 9.140625 -11.40625 8.894531 -11.421875 8.625 -11.421875 C 8.164062 -11.421875 7.726562 -11.335938 7.3125 -11.171875 C 6.894531 -11.003906 6.53125 -10.820312 6.21875 -10.625 C 5.84375 -10.394531 5.492188 -10.128906 5.171875 -9.828125 L 5.171875 0 L 1.71875 0 Z M 1.71875 -9.828125 "/></g></g></g><g fill="#E8EDF2" fill-opacity="1"><g transform="translate(622.740996, 576.834935)"><g><path d="M 8.359375 0.390625 C 7.296875 0.390625 6.304688 0.207031 5.390625 -0.15625 C 4.484375 -0.53125 3.695312 -1.035156 3.03125 -1.671875 C 2.375 -2.304688 1.859375 -3.050781 1.484375 -3.90625 C 1.109375 -4.769531 0.921875 -5.679688 0.921875 -6.640625 C 0.921875 -7.597656 1.109375 -8.503906 1.484375 -9.359375 C 1.859375 -10.222656 2.375 -10.972656 3.03125 -11.609375 C 3.695312 -12.242188 4.484375 -12.742188 5.390625 -13.109375 C 6.304688 -13.484375 7.296875 -13.671875 8.359375 -13.671875 C 9.421875 -13.671875 10.40625 -13.484375 11.3125 -13.109375 C 12.21875 -12.742188 13 -12.242188 13.65625 -11.609375 C 14.320312 -10.972656 14.84375 -10.222656 15.21875 -9.359375 C 15.601562 -8.503906 15.796875 -7.597656 15.796875 -6.640625 C 15.796875 -5.679688 15.601562 -4.769531 15.21875 -3.90625 C 14.84375 -3.050781 14.320312 -2.304688 13.65625 -1.671875 C 13 -1.035156 12.21875 -0.53125 11.3125 -0.15625 C 10.40625 0.207031 9.421875 0.390625 8.359375 0.390625 Z M 8.359375 -1.328125 C 8.859375 -1.328125 9.335938 -1.441406 9.796875 -1.671875 C 10.253906 -1.898438 10.664062 -2.238281 11.03125 -2.6875 C 11.394531 -3.144531 11.679688 -3.703125 11.890625 -4.359375 C 12.109375 -5.015625 12.21875 -5.773438 12.21875 -6.640625 C 12.21875 -7.503906 12.109375 -8.265625 11.890625 -8.921875 C 11.679688 -9.578125 11.394531 -10.128906 11.03125 -10.578125 C 10.664062 -11.035156 10.253906 -11.378906 9.796875 -11.609375 C 9.335938 -11.835938 8.859375 -11.953125 8.359375 -11.953125 C 7.867188 -11.953125 7.390625 -11.835938 6.921875 -11.609375 C 6.460938 -11.378906 6.050781 -11.035156 5.6875 -10.578125 C 5.332031 -10.128906 5.046875 -9.578125 4.828125 -8.921875 C 4.617188 -8.265625 4.515625 -7.503906 4.515625 -6.640625 C 4.515625 -5.773438 4.617188 -5.015625 4.828125 -4.359375 C 5.046875 -3.703125 5.332031 -3.144531 5.6875 -2.6875 C 6.050781 -2.238281 6.460938 -1.898438 6.921875 -1.671875 C 7.390625 -1.441406 7.867188 -1.328125 8.359375 -1.328125 Z M 8.359375 -1.328125 "/></g></g></g><g fill="#E8EDF2" fill-opacity="1"><g transform="translate(638.939191, 576.834935)"><g><path d="M 0.390625 -13.28125 L 4.25 -13.28125 L 7.296875 -4.640625 L 7.4375 -4.640625 L 10.359375 -13.28125 L 13.546875 -13.28125 L 16.59375 -4.640625 L 16.734375 -4.640625 L 19.65625 -13.28125 L 21.90625 -13.28125 L 17.265625 0 L 14.34375 0 L 11.15625 -9.03125 L 11.015625 -9.03125 L 7.96875 0 L 5.046875 0 Z M 0.390625 -13.28125 "/></g></g></g><g fill="#E8EDF2" fill-opacity="1"><g transform="translate(661.245188, 576.834935)"><g><path d="M 7.703125 0.390625 C 6.941406 0.390625 6.25 0.257812 5.625 0 C 5.007812 -0.25 4.476562 -0.597656 4.03125 -1.046875 C 3.59375 -1.492188 3.253906 -2.035156 3.015625 -2.671875 C 2.773438 -3.316406 2.65625 -4.019531 2.65625 -4.78125 L 2.65625 -11.28125 L 0.390625 -11.28125 L 0.390625 -13.28125 L 2.921875 -13.28125 L 4.640625 -17.125 L 6.109375 -17.125 L 6.109375 -13.28125 L 10.09375 -13.28125 L 9.6875 -11.28125 L 6.109375 -11.28125 L 6.109375 -4.78125 C 6.109375 -3.570312 6.335938 -2.691406 6.796875 -2.140625 C 7.253906 -1.597656 7.820312 -1.328125 8.5 -1.328125 C 8.90625 -1.328125 9.265625 -1.390625 9.578125 -1.515625 C 9.890625 -1.648438 10.148438 -1.804688 10.359375 -1.984375 C 10.609375 -2.179688 10.828125 -2.40625 11.015625 -2.65625 L 11.953125 -1.59375 C 11.671875 -1.21875 11.328125 -0.878906 10.921875 -0.578125 C 10.566406 -0.335938 10.125 -0.117188 9.59375 0.078125 C 9.070312 0.285156 8.441406 0.390625 7.703125 0.390625 Z M 7.703125 0.390625 "/></g></g></g><g fill="#E8EDF2" fill-opacity="1"><g transform="translate(673.194833, 576.834935)"><g><path d="M 1.859375 -19.125 L 5.3125 -19.125 L 5.3125 -11.8125 L 5.4375 -11.8125 C 5.738281 -12.15625 6.09375 -12.46875 6.5 -12.75 C 6.851562 -12.976562 7.28125 -13.1875 7.78125 -13.375 C 8.289062 -13.570312 8.882812 -13.671875 9.5625 -13.671875 C 10.425781 -13.671875 11.203125 -13.546875 11.890625 -13.296875 C 12.585938 -13.054688 13.175781 -12.710938 13.65625 -12.265625 C 14.132812 -11.828125 14.5 -11.304688 14.75 -10.703125 C 15.007812 -10.097656 15.140625 -9.453125 15.140625 -8.765625 L 15.140625 0 L 11.6875 0 L 11.6875 -8.765625 C 11.6875 -9.773438 11.414062 -10.554688 10.875 -11.109375 C 10.332031 -11.671875 9.628906 -11.953125 8.765625 -11.953125 C 8.234375 -11.953125 7.753906 -11.835938 7.328125 -11.609375 C 6.898438 -11.390625 6.535156 -11.148438 6.234375 -10.890625 C 5.878906 -10.566406 5.570312 -10.210938 5.3125 -9.828125 L 5.3125 0 L 1.859375 0 Z M 1.859375 -19.125 "/></g></g></g>
</svg>